<svg width="1404" height="858" viewBox="0 0 1404 858" fill="none" xmlns="http://www.w3.org/2000/svg">
<path d="M392.711 113.834C417.164 83.1468 433.823 42.0921 429.369 0C393.641 1.76384 349.94 23.6278 324.569 54.3262C301.877 80.5694 281.801 123.476 286.976 163.702C327.26 167.228 367.339 143.601 392.711 113.834Z" fill="white"/>
<path d="M428.947 171.578C370.539 168.051 320.934 204.753 293.079 204.753C265.133 204.753 222.451 173.341 176.263 174.17C116.199 175.052 60.4863 209.109 29.9363 263.226C-32.8221 371.356 13.3507 531.948 74.3625 620.07C103.979 663.717 139.707 711.716 186.722 709.953C231.149 708.189 248.65 681.241 302.605 681.241C356.663 681.241 372.3 709.953 419.315 709.13C468.195 708.248 498.642 665.483 528.258 621.836C562.225 572.177 576.207 524.178 577.035 521.48C576.154 520.598 483.004 484.781 482.071 377.48C481.19 287.595 555.289 244.88 558.808 242.288C516.971 180.291 451.627 173.341 428.947 171.578Z" fill="white"/>
<path d="M800.71 88.8568V207.354H895.879V285.629H800.71V564.407C800.71 607.536 819.673 627.544 861.29 627.544C871.74 627.544 888.825 626.076 895.465 625.194V703.882C884.075 706.232 861.29 708.144 839.027 708.144C740.543 708.144 702.226 670.198 702.226 574.406V285.674H629.217V207.399H702.226V88.902L800.71 88.8568Z" fill="white"/>
<path d="M1229.12 704.231H1124.53L948.789 207.428H1052.76L1176.1 606.675H1178.45L1301.79 207.428H1404L1229.12 704.231Z" fill="white"/>
</svg>
